# xmcd
#
# Track frame offsets:
#	150
#	13692
#	24933
#	41770
#	54547
#	68666
#	82721
#	93707
#	109155
#	119488
#	135954
#	150203
#
# Disc length: 2187 seconds
#
# Revision: 0
# Processed by: cddbd v1.5.1PL2 Copyright (c) Steve Scherf et al.
# Submitted via: dBpowerAMP V4.0
#
DISCID=8908890c
DTITLE=Avsenik - Juhej, zavriskaj in zapoj
DYEAR=2005
DGENRE=oberkrein
TTITLE0=Z vami 30 let
TTITLE1=Moja zlata miška
TTITLE2=Živahno in veselo
TTITLE3=Prijatelj harmonike
TTITLE4=Sanjam o domovini
TTITLE5=Neprespane noči
TTITLE6=Vecer za večerom
TTITLE7=Ne pozabi me
TTITLE8=Juhej, zavriskaj in zapoj
TTITLE9=Ne oknu slonim
TTITLE10=Izlet na Jamnik
TTITLE11=Zapoj in zaigraj
EXTD=
EXTT0=
EXTT1=
EXTT2=
EXTT3=
EXTT4=
EXTT5=
EXTT6=
EXTT7=
EXTT8=
EXTT9=
EXTT10=
EXTT11=
PLAYORDER=
